<svg width="126" height="31" viewBox="0 0 126 31" fill="none" xmlns="http://www.w3.org/2000/svg">
<path d="M2.62216 18.3523V16.875L14.5142 10.8182V13.1818L5.39205 17.5767L5.46591 17.429V17.7983L5.39205 17.6506L14.5142 22.0455V24.4091L2.62216 18.3523ZM25.8176 5.20454L19.7239 27.8438H17.7296L23.8233 5.20454H25.8176ZM40.9205 18.3523L29.0284 24.4091V22.0455L38.1506 17.6506L38.0767 17.7983V17.429L38.1506 17.5767L29.0284 13.1818V10.8182L40.9205 16.875V18.3523Z" fill="url(#paint0_linear_1_11)"/>
<path d="M53.3662 21.1201H59.624V22.5H51.7402V9.70312H53.3662V21.1201ZM68.4482 19.1865H64.1768L63.1484 22.5H61.5225L65.6533 9.70312H67.0156L71.0762 22.5H69.459L68.4482 19.1865ZM64.6162 17.7715H68.0176L66.3301 12.2168L64.6162 17.7715ZM77.3867 17.2793H74.8291V22.5H73.2119V9.70312H76.9648C77.5625 9.71484 78.125 9.7998 78.6523 9.95801C79.1797 10.1162 79.6426 10.3535 80.041 10.6699C80.4336 10.9863 80.7412 11.3848 80.9639 11.8652C81.1924 12.3398 81.3066 12.8994 81.3066 13.5439C81.3066 13.96 81.2451 14.3408 81.1221 14.6865C81.0049 15.0322 80.8408 15.3457 80.6299 15.627C80.4189 15.9082 80.167 16.1572 79.874 16.374C79.5811 16.5908 79.2588 16.7754 78.9072 16.9277L81.623 22.3945L81.6143 22.5H79.9004L77.3867 17.2793ZM74.8291 15.9434H77.0088C77.3721 15.9375 77.7148 15.8818 78.0371 15.7764C78.3594 15.665 78.6436 15.5068 78.8896 15.3018C79.1299 15.0967 79.3203 14.8477 79.4609 14.5547C79.6016 14.2559 79.6719 13.9131 79.6719 13.5264C79.6719 13.1162 79.6045 12.7588 79.4697 12.4541C79.335 12.1436 79.1475 11.8828 78.9072 11.6719C78.667 11.4668 78.3799 11.3115 78.0459 11.2061C77.7178 11.1006 77.3574 11.0449 76.9648 11.0391H74.8291V15.9434ZM92.5918 11.0918H88.6367V22.5H87.0547V11.0918H83.0996V9.70312H92.5918V11.0918ZM101.812 16.585H96.4678V21.1201H102.699V22.5H94.8418V9.70312H102.62V11.0918H96.4678V15.2051H101.812V16.585ZM113.87 18.6504C113.794 19.2422 113.642 19.7871 113.413 20.2852C113.185 20.7773 112.889 21.1992 112.525 21.5508C112.156 21.9082 111.72 22.1865 111.216 22.3857C110.718 22.5791 110.161 22.6758 109.546 22.6758C109.019 22.6758 108.538 22.6025 108.104 22.4561C107.677 22.3037 107.296 22.0957 106.962 21.832C106.622 21.5684 106.329 21.2578 106.083 20.9004C105.843 20.543 105.644 20.1533 105.485 19.7314C105.321 19.3096 105.198 18.8672 105.116 18.4043C105.04 17.9414 104.999 17.4727 104.993 16.998V15.2139C104.999 14.7393 105.04 14.2705 105.116 13.8076C105.198 13.3447 105.321 12.9023 105.485 12.4805C105.644 12.0586 105.843 11.6689 106.083 11.3115C106.329 10.9482 106.622 10.6348 106.962 10.3711C107.296 10.1074 107.677 9.90234 108.104 9.75586C108.532 9.60352 109.013 9.52734 109.546 9.52734C110.185 9.52734 110.756 9.62695 111.26 9.82617C111.764 10.0195 112.197 10.2949 112.561 10.6523C112.924 11.0156 113.214 11.4492 113.431 11.9531C113.653 12.457 113.8 13.0137 113.87 13.623H112.244C112.191 13.2363 112.101 12.876 111.972 12.542C111.843 12.208 111.67 11.915 111.453 11.6631C111.236 11.4111 110.97 11.2148 110.653 11.0742C110.343 10.9277 109.974 10.8545 109.546 10.8545C109.159 10.8545 108.816 10.9189 108.518 11.0479C108.225 11.1709 107.973 11.3408 107.762 11.5576C107.545 11.7744 107.363 12.0264 107.217 12.3135C107.076 12.6006 106.962 12.9053 106.874 13.2275C106.786 13.5498 106.722 13.8809 106.681 14.2207C106.646 14.5547 106.628 14.8799 106.628 15.1963V16.998C106.628 17.3145 106.646 17.6426 106.681 17.9824C106.722 18.3164 106.786 18.6445 106.874 18.9668C106.962 19.2949 107.076 19.6025 107.217 19.8896C107.357 20.1768 107.536 20.4287 107.753 20.6455C107.97 20.8682 108.225 21.0439 108.518 21.1729C108.811 21.2959 109.153 21.3574 109.546 21.3574C109.974 21.3574 110.343 21.29 110.653 21.1553C110.97 21.0205 111.236 20.8301 111.453 20.584C111.67 20.3438 111.843 20.0596 111.972 19.7314C112.101 19.3975 112.191 19.0371 112.244 18.6504H113.87ZM124.417 22.5H122.879V16.585H117.632V22.5H116.103V9.70312H117.632V15.2051H122.879V9.70312H124.417V22.5Z" fill="#545454" fill-opacity="0.8"/>
<defs>
<linearGradient id="paint0_linear_1_11" x1="6.32132e-08" y1="28.1818" x2="37.1724" y2="28.1818" gradientUnits="userSpaceOnUse">
<stop stop-color="#B100FF"/>
<stop offset="1" stop-color="#A233B4" stop-opacity="0.51"/>
</linearGradient>
</defs>
</svg>